<?xml version="1.0" encoding="UTF-8"?>
<svg id="Layer_1" data-name="Layer 1" xmlns="http://www.w3.org/2000/svg" viewBox="0 0 199.15 100.93">
  <defs>
    <style>
      .cls-1 {
        letter-spacing: .01em;
      }

      .cls-2 {
        fill: #2e3192;
      }

      .cls-3 {
        fill: #ffe100;
      }

      .cls-4 {
        letter-spacing: 0em;
      }

      .cls-5, .cls-6 {
        fill: #da251c;
      }

      .cls-6 {
        font-family: JostRoman-Bold, Jost;
        font-size: 23.01px;
        font-variation-settings: 'wght' 700;
        font-weight: 700;
      }
    </style>
  </defs>
  <path class="cls-5" d="m105.87,42.52l6.58,6.58-6.55,6.55-3.1,3.1,3.1,3.1,7.29,7.29c-5.11-1.28-9.18-1.9-12.41-1.9-4.53,0-7.11,1.24-8.97,2.69-.71.42-1.24,1-1.69,1.5l-1.07,1.07-2.93,2.93-6.58-6.58,26.33-26.33m0-6.2l-32.52,32.52,12.78,12.78c1.94-1.94,2.52-2.52,6.03-6.03.5-.5.87-.87,1.15-1.15.02-.02.74-.74.74-.74,0,0-.18.19-.74.74,0,0,0,0,0,0s0,0,0,0c1.35-1.27,2.83-2.82,7.48-2.82,4.82,0,13.06,1.66,28.1,7.01l-19.89-19.89,9.65-9.65-12.78-12.78h0Z"/>
  <path class="cls-3" d="m69.52,0l-32.52,32.52,32.52,32.52,32.52-32.52L69.52,0Zm-26.33,32.52l26.33-26.33,26.33,26.33-26.33,26.33-26.33-26.33Z"/>
  <path class="cls-3" d="m69.52,19.17l-13.35,13.35,13.35,13.35,13.35-13.35-13.35-13.35Zm-7.15,13.35l7.15-7.15,7.15,7.15-7.15,7.15-7.15-7.15Z"/>
  <path class="cls-5" d="m65.74,68.4l-32.52,32.52L.69,68.4l32.52-32.52,32.52,32.52Zm-32.52,26.33l26.33-26.33-26.33-26.33-26.33,26.33,26.33,26.33Z"/>
  <path class="cls-5" d="m33.21,58.3c5.57,0,10.11,4.53,10.11,10.11s-4.53,10.11-10.11,10.11-10.11-4.53-10.11-10.11,4.53-10.11,10.11-10.11m0-4.82c-8.24,0-14.93,6.68-14.93,14.93s6.68,14.93,14.93,14.93,14.93-6.68,14.93-14.93-6.68-14.93-14.93-14.93h0Z"/>
  <path class="cls-5" d="m33.21,63.62c-2.64,0-4.79,2.14-4.79,4.79s2.14,4.79,4.79,4.79,4.79-2.14,4.79-4.79-2.14-4.79-4.79-4.79h0Z"/>
  <polyline class="cls-2" points="83.57 100.93 97.24 100.93 97.25 100.93 69.51 73.19 41.77 100.93 41.77 100.93 55.44 100.93"/>
  <text class="cls-6" transform="translate(134.18 55.24)"><tspan class="cls-4"><tspan x="0" y="0">OPEN</tspan></tspan><tspan class="cls-1"><tspan x="1.4" y="20.82">TIBET</tspan></tspan></text>
</svg>