<?xml version="1.0" encoding="UTF-8"?><svg id="uuid-c71d1ac9-68af-4b46-867e-073708c2b0fc" xmlns="http://www.w3.org/2000/svg" viewBox="0 0 128.19 100.93"><defs><style>.uuid-7deb7c92-81db-41b7-97b6-928a0841ab56{fill:#ffe18b;}.uuid-8cc51781-51e9-4053-a14e-a883c693bbdb{fill:#fbb03b;}</style></defs><g id="uuid-ea129794-4f33-4e0d-8c24-70f4f7607acf"><path class="uuid-8cc51781-51e9-4053-a14e-a883c693bbdb" d="m68.83,19.17l-13.35,13.35,13.35,13.35,13.35-13.35-13.35-13.35Zm-7.15,13.35l7.15-7.15,7.15,7.15-7.15,7.15-7.15-7.15Z"/><path d="m32.52,58.3c5.57,0,10.11,4.53,10.11,10.11s-4.53,10.11-10.11,10.11-10.11-4.53-10.11-10.11,4.53-10.11,10.11-10.11m0-4.82c-8.24,0-14.93,6.68-14.93,14.93s6.68,14.93,14.93,14.93,14.93-6.68,14.93-14.93-6.68-14.93-14.93-14.93h0Z"/><path d="m32.52,63.62c-2.64,0-4.79,2.14-4.79,4.79s2.14,4.79,4.79,4.79,4.79-2.14,4.79-4.79-2.14-4.79-4.79-4.79h0Z"/><path d="m105.18,42.52l6.58,6.58-6.55,6.55-3.1,3.1,3.1,3.1,7.29,7.29c-5.11-1.28-9.18-1.9-12.41-1.9-4.53,0-7.11,1.24-8.97,2.69-.71.42-1.24,1-1.69,1.5l-1.07,1.07-2.93,2.93-6.58-6.58,26.33-26.33m0-6.2l-32.52,32.52,12.78,12.78c1.94-1.94,2.52-2.52,6.03-6.03.5-.5.87-.87,1.15-1.15.02-.02.74-.74.74-.74,0,0-.18.19-.74.74,0,0,0,0,0,0s0,0,0,0c1.35-1.27,2.83-2.82,7.48-2.82,4.82,0,13.06,1.66,28.1,7.01l-19.89-19.89,9.65-9.65-12.78-12.78h0Z"/><path d="m65.05,68.4l-32.52,32.52L0,68.4l32.52-32.52,32.52,32.52Zm-32.52,26.33l26.33-26.33-26.33-26.33-26.33,26.33,26.33,26.33Z"/><polyline points="82.89 100.93 96.56 100.93 96.56 100.93 68.82 73.19 41.08 100.93 41.08 100.93 54.75 100.93"/><path class="uuid-7deb7c92-81db-41b7-97b6-928a0841ab56" d="m68.83,0l-32.52,32.52,32.52,32.52,32.52-32.52L68.83,0Zm0,45.88l-13.35-13.35,13.35-13.35,13.35,13.35-13.35,13.35Z"/></g></svg>