<?xml version="1.0" encoding="UTF-8"?><svg id="uuid-6014adda-cc85-4cc1-ae8d-f7deb1e656d7" xmlns="http://www.w3.org/2000/svg" viewBox="0 0 211.39 100.93"><defs><style>.uuid-1027729d-13c7-4c3c-bb87-9630a067397c{fill:#ffe18b;}.uuid-ee2fceb0-5ece-44a4-8800-c0e3eda0a235{fill:#fbb03b;}</style></defs><g id="uuid-b55910db-8357-4c55-9ca0-aa4e5e5d8e0a"><path class="uuid-ee2fceb0-5ece-44a4-8800-c0e3eda0a235" d="m68.83,19.17l-13.35,13.35,13.35,13.35,13.35-13.35-13.35-13.35Zm-7.15,13.35l7.15-7.15,7.15,7.15-7.15,7.15-7.15-7.15Z"/><path d="m32.52,58.3c5.57,0,10.11,4.53,10.11,10.11s-4.53,10.11-10.11,10.11-10.11-4.53-10.11-10.11,4.53-10.11,10.11-10.11m0-4.82c-8.24,0-14.93,6.68-14.93,14.93s6.68,14.93,14.93,14.93,14.93-6.68,14.93-14.93-6.68-14.93-14.93-14.93h0Z"/><path d="m32.52,63.62c-2.64,0-4.79,2.14-4.79,4.79s2.14,4.79,4.79,4.79,4.79-2.14,4.79-4.79-2.14-4.79-4.79-4.79h0Z"/><path d="m105.18,42.52l6.58,6.58-6.55,6.55-3.1,3.1,3.1,3.1,7.29,7.29c-5.11-1.28-9.18-1.9-12.41-1.9-4.53,0-7.11,1.24-8.97,2.69-.71.42-1.24,1-1.69,1.5l-1.07,1.07-2.93,2.93-6.58-6.58,26.33-26.33m0-6.2l-32.52,32.52,12.78,12.78c1.94-1.94,2.52-2.52,6.03-6.03.5-.5.87-.87,1.15-1.15.02-.02.74-.74.74-.74,0,0-.18.19-.74.74,0,0,0,0,0,0s0,0,0,0c1.35-1.27,2.83-2.82,7.48-2.82,4.82,0,13.06,1.66,28.1,7.01l-19.89-19.89,9.65-9.65-12.78-12.78h0Z"/><path d="m65.05,68.4l-32.52,32.52L0,68.4l32.52-32.52,32.52,32.52Zm-32.52,26.33l26.33-26.33-26.33-26.33-26.33,26.33,26.33,26.33Z"/><polyline points="82.89 100.93 96.56 100.93 96.56 100.93 68.82 73.19 41.08 100.93 41.08 100.93 54.75 100.93"/><path class="uuid-1027729d-13c7-4c3c-bb87-9630a067397c" d="m68.83,0l-32.52,32.52,32.52,32.52,32.52-32.52L68.83,0Zm0,45.88l-13.35-13.35,13.35-13.35,13.35,13.35-13.35,13.35Z"/><path d="m139.79,55.6c-2.02,0-3.8-.38-5.33-1.13-1.53-.75-2.71-1.8-3.55-3.15-.84-1.35-1.27-2.92-1.27-4.72s.42-3.37,1.27-4.72c.84-1.35,2.03-2.4,3.55-3.15,1.53-.75,3.3-1.13,5.33-1.13s3.8.38,5.33,1.13c1.53.75,2.71,1.8,3.57,3.15.85,1.35,1.28,2.92,1.28,4.72s-.43,3.37-1.28,4.72c-.85,1.35-2.04,2.4-3.57,3.15-1.53.75-3.3,1.13-5.33,1.13Zm0-3.89c1.2,0,2.22-.2,3.08-.61.86-.41,1.52-.99,1.99-1.76s.7-1.68.7-2.74-.23-1.97-.7-2.74-1.13-1.35-1.99-1.76-1.89-.61-3.08-.61-2.2.2-3.06.61c-.86.41-1.53.99-2,1.76s-.71,1.68-.71,2.74.24,1.97.71,2.74,1.14,1.35,2,1.76c.86.41,1.88.61,3.06.61Z"/><path d="m162.32,37.98c1.41,0,2.63.24,3.65.72,1.02.48,1.8,1.16,2.35,2.04.54.87.82,1.89.82,3.06s-.27,2.19-.82,3.06c-.54.87-1.33,1.55-2.35,2.04-1.02.48-2.24.72-3.65.72h-7.55v-3.52h7.32c.83,0,1.48-.2,1.96-.61.47-.41.71-.97.71-1.69s-.24-1.28-.71-1.69c-.48-.41-1.13-.61-1.96-.61h-6.92l1.96-2.02v15.76h-4.35v-17.25h9.55Z"/><path d="m176.44,46.61l-1.15,7.13-1.82-2.05h13.25v3.54h-15.78l1.33-8.63-1.33-8.63h15.67v3.54h-13.14l1.82-2.05,1.15,7.13Zm9.55-1.61v3.22h-12.49v-3.22h12.49Z"/><path d="m205.8,52.27l-1.4.25v-14.54h4.21v17.25h-5.48l-10.51-14.54,1.4-.25v14.79h-4.21v-17.25h5.64l10.35,14.29Z"/><path d="m128.38,59.8h17.78v3.84h-17.78v-3.84Zm6.72,1.91h4.35v15.35h-4.35v-15.35Z"/><path d="m148.49,59.8h4.35v17.25h-4.35v-17.25Z"/><path d="m167.82,68.59l.37-.85c1.35.03,2.46.24,3.33.62.87.38,1.51.91,1.93,1.58.42.67.63,1.44.63,2.31,0,.92-.21,1.75-.64,2.47-.43.73-1.07,1.3-1.92,1.71-.85.41-1.91.62-3.19.62h-12.42l1.33-8.86-1.33-8.4h11.99c1.59,0,2.83.37,3.72,1.12.88.74,1.32,1.77,1.32,3.07,0,.72-.17,1.41-.51,2.07s-.87,1.22-1.61,1.67-1.73.74-2.99.86Zm-7.64,7.41l-1.66-2.05h8.77c.75,0,1.34-.18,1.76-.54s.63-.87.63-1.53-.23-1.18-.7-1.58c-.47-.39-1.16-.59-2.08-.59h-7.18v-3.04h6.63c.63,0,1.15-.18,1.56-.54.41-.36.62-.85.62-1.48,0-.51-.18-.92-.53-1.25-.35-.33-.87-.5-1.54-.5h-7.91l1.63-2.05,1.22,7.34-1.22,7.8Z"/><path d="m181.73,68.42l-1.15,7.13-1.82-2.05h13.25v3.54h-15.78l1.33-8.63-1.33-8.63h15.67v3.54h-13.14l1.82-2.05,1.15,7.13Zm9.55-1.61v3.22h-12.49v-3.22h12.49Z"/><path d="m193.61,59.8h17.78v3.84h-17.78v-3.84Zm6.72,1.91h4.35v15.35h-4.35v-15.35Z"/></g></svg>