<?xml version="1.0" encoding="UTF-8"?><svg id="uuid-5f0554ab-0e6b-4271-bba8-42384058f1f9" xmlns="http://www.w3.org/2000/svg" viewBox="0 0 128.19 100.93"><defs><style>.uuid-5c051b82-3348-450c-9e53-484f5bc610d0{fill:#2e3192;}.uuid-6721225d-7cc0-4d15-a0c2-8d1cd779eb83{fill:#ffe100;}.uuid-07135fb5-2d5f-459f-bace-32f25b454539{fill:#da251c;}</style></defs><g id="uuid-efb512c9-d725-4a6c-bcb4-be4da84baf55"><path class="uuid-5c051b82-3348-450c-9e53-484f5bc610d0" d="m105.18,42.52l6.58,6.58-6.55,6.55-3.1,3.1,3.1,3.1,7.29,7.29c-5.11-1.28-9.18-1.9-12.41-1.9-4.53,0-7.11,1.24-8.97,2.69-.71.42-1.24,1-1.69,1.5l-1.07,1.07-2.93,2.93-6.58-6.58,26.33-26.33m0-6.2l-32.52,32.52,12.78,12.78c1.94-1.94,2.52-2.52,6.03-6.03.5-.5.87-.87,1.15-1.15.02-.02.74-.74.74-.74,0,0-.18.19-.74.74,0,0,0,0,0,0s0,0,0,0c1.35-1.27,2.83-2.82,7.48-2.82,4.82,0,13.06,1.66,28.1,7.01l-19.89-19.89,9.65-9.65-12.78-12.78h0Z"/><path class="uuid-6721225d-7cc0-4d15-a0c2-8d1cd779eb83" d="m68.83,0l-32.52,32.52,32.52,32.52,32.52-32.52L68.83,0Zm-26.33,32.52l26.33-26.33,26.33,26.33-26.33,26.33-26.33-26.33Z"/><path class="uuid-6721225d-7cc0-4d15-a0c2-8d1cd779eb83" d="m68.83,19.17l-13.35,13.35,13.35,13.35,13.35-13.35-13.35-13.35Zm-7.15,13.35l7.15-7.15,7.15,7.15-7.15,7.15-7.15-7.15Z"/><path class="uuid-5c051b82-3348-450c-9e53-484f5bc610d0" d="m65.05,68.4l-32.52,32.52L0,68.4l32.52-32.52,32.52,32.52Zm-32.52,26.33l26.33-26.33-26.33-26.33-26.33,26.33,26.33,26.33Z"/><path class="uuid-5c051b82-3348-450c-9e53-484f5bc610d0" d="m32.52,58.3c5.57,0,10.11,4.53,10.11,10.11s-4.53,10.11-10.11,10.11-10.11-4.53-10.11-10.11,4.53-10.11,10.11-10.11m0-4.82c-8.24,0-14.93,6.68-14.93,14.93s6.68,14.93,14.93,14.93,14.93-6.68,14.93-14.93-6.68-14.93-14.93-14.93h0Z"/><path class="uuid-5c051b82-3348-450c-9e53-484f5bc610d0" d="m32.52,63.62c-2.64,0-4.79,2.14-4.79,4.79s2.14,4.79,4.79,4.79,4.79-2.14,4.79-4.79-2.14-4.79-4.79-4.79h0Z"/><polyline class="uuid-07135fb5-2d5f-459f-bace-32f25b454539" points="82.89 100.93 96.56 100.93 96.56 100.93 68.82 73.19 41.08 100.93 41.08 100.93 54.75 100.93"/></g></svg>