<?xml version="1.0" encoding="UTF-8"?><svg id="uuid-025b5016-058c-4db0-80a9-f7b47469eab7" xmlns="http://www.w3.org/2000/svg" viewBox="0 0 422.98 100.93"><defs><style>.uuid-481f3a19-2289-4da6-a9fe-addf7c1bdfbe{fill:#2e3192;}.uuid-8eafae48-a80d-4560-9130-eb0317dea11a{fill:#ffe100;}.uuid-2f519b6b-6f90-4ac2-9e0d-4848ebff9bcc{fill:#da251c;}</style></defs><g id="uuid-1417d5b9-802e-4b9a-99ff-b481388c2f5b"><path class="uuid-481f3a19-2289-4da6-a9fe-addf7c1bdfbe" d="m105.18,42.52l6.58,6.58-6.55,6.55-3.1,3.1,3.1,3.1,7.29,7.29c-5.11-1.28-9.18-1.9-12.41-1.9-4.53,0-7.11,1.24-8.97,2.69-.71.42-1.24,1-1.69,1.5l-1.07,1.07-2.93,2.93-6.58-6.58,26.33-26.33m0-6.2l-32.52,32.52,12.78,12.78c1.94-1.94,2.52-2.52,6.03-6.03.5-.5.87-.87,1.15-1.15.02-.02.74-.74.74-.74,0,0-.18.19-.74.74,0,0,0,0,0,0s0,0,0,0c1.35-1.27,2.83-2.82,7.48-2.82,4.82,0,13.06,1.66,28.1,7.01l-19.89-19.89,9.65-9.65-12.78-12.78h0Z"/><path class="uuid-8eafae48-a80d-4560-9130-eb0317dea11a" d="m68.83,0l-32.52,32.52,32.52,32.52,32.52-32.52L68.83,0Zm-26.33,32.52l26.33-26.33,26.33,26.33-26.33,26.33-26.33-26.33Z"/><path class="uuid-8eafae48-a80d-4560-9130-eb0317dea11a" d="m68.83,19.17l-13.35,13.35,13.35,13.35,13.35-13.35-13.35-13.35Zm-7.15,13.35l7.15-7.15,7.15,7.15-7.15,7.15-7.15-7.15Z"/><path class="uuid-481f3a19-2289-4da6-a9fe-addf7c1bdfbe" d="m65.05,68.4l-32.52,32.52L0,68.4l32.52-32.52,32.52,32.52Zm-32.52,26.33l26.33-26.33-26.33-26.33-26.33,26.33,26.33,26.33Z"/><path class="uuid-481f3a19-2289-4da6-a9fe-addf7c1bdfbe" d="m32.52,58.3c5.57,0,10.11,4.53,10.11,10.11s-4.53,10.11-10.11,10.11-10.11-4.53-10.11-10.11,4.53-10.11,10.11-10.11m0-4.82c-8.24,0-14.93,6.68-14.93,14.93s6.68,14.93,14.93,14.93,14.93-6.68,14.93-14.93-6.68-14.93-14.93-14.93h0Z"/><path class="uuid-481f3a19-2289-4da6-a9fe-addf7c1bdfbe" d="m32.52,63.62c-2.64,0-4.79,2.14-4.79,4.79s2.14,4.79,4.79,4.79,4.79-2.14,4.79-4.79-2.14-4.79-4.79-4.79h0Z"/><polyline class="uuid-2f519b6b-6f90-4ac2-9e0d-4848ebff9bcc" points="82.89 100.93 96.56 100.93 96.56 100.93 68.82 73.19 41.08 100.93 41.08 100.93 54.75 100.93"/><path class="uuid-481f3a19-2289-4da6-a9fe-addf7c1bdfbe" d="m156.43,73.7c-3.41,0-6.42-.64-9.01-1.93-2.6-1.29-4.62-3.08-6.06-5.37-1.44-2.3-2.17-4.98-2.17-8.05s.72-5.75,2.17-8.05c1.44-2.3,3.46-4.09,6.06-5.37s5.6-1.93,9.01-1.93,6.45.64,9.03,1.93c2.58,1.29,4.6,3.08,6.04,5.37,1.44,2.3,2.17,4.98,2.17,8.05s-.72,5.75-2.17,8.05c-1.44,2.3-3.46,4.09-6.04,5.37-2.58,1.29-5.6,1.93-9.03,1.93Zm0-5.98c2.15,0,4.01-.37,5.57-1.12,1.56-.75,2.77-1.83,3.62-3.25.85-1.42,1.28-3.08,1.28-5s-.43-3.58-1.28-5c-.85-1.42-2.06-2.5-3.62-3.25-1.56-.75-3.42-1.12-5.57-1.12s-3.97.37-5.53,1.12c-1.56.75-2.77,1.83-3.64,3.25s-1.3,3.08-1.3,5,.43,3.58,1.3,5,2.08,2.5,3.64,3.25,3.41,1.12,5.53,1.12Z"/><path class="uuid-481f3a19-2289-4da6-a9fe-addf7c1bdfbe" d="m194.38,43.58c2.33,0,4.36.41,6.06,1.22,1.71.81,3.02,1.96,3.94,3.42.92,1.47,1.38,3.18,1.38,5.12s-.46,3.65-1.38,5.12c-.92,1.47-2.23,2.61-3.94,3.42-1.71.81-3.73,1.22-6.06,1.22h-13.03v-5.55h12.68c1.55,0,2.76-.37,3.64-1.12.88-.75,1.32-1.78,1.32-3.09s-.44-2.38-1.32-3.13c-.88-.75-2.09-1.12-3.64-1.12h-12.05l2.99-3.19v27.2h-6.69v-29.52h16.1Z"/><path class="uuid-481f3a19-2289-4da6-a9fe-addf7c1bdfbe" d="m217.33,58.35l-2.01,12.52-2.91-3.31h22.75v5.55h-26.57l2.28-14.76-2.28-14.76h26.38v5.55h-22.56l2.91-3.31,2.01,12.52Zm16.61-2.56v5.12h-21.1v-5.12h21.1Z"/><path class="uuid-481f3a19-2289-4da6-a9fe-addf7c1bdfbe" d="m267.6,68.66l-2.32.39v-25.47h6.5v29.52h-8.46l-18.9-25.43,2.32-.39v25.82h-6.5v-29.52h8.66l18.7,25.08Z"/><path class="uuid-481f3a19-2289-4da6-a9fe-addf7c1bdfbe" d="m284.25,43.58h30.11v5.91h-30.11v-5.91Zm11.69,2.99h6.69v26.53h-6.69v-26.53Z"/><path class="uuid-481f3a19-2289-4da6-a9fe-addf7c1bdfbe" d="m318.11,43.58h6.69v29.52h-6.69v-29.52Z"/><path class="uuid-481f3a19-2289-4da6-a9fe-addf7c1bdfbe" d="m349.83,58.54l.59-1.34c2.31.05,4.21.41,5.69,1.08,1.48.67,2.58,1.58,3.29,2.72.71,1.14,1.06,2.45,1.06,3.92,0,1.58-.37,2.98-1.1,4.21-.74,1.23-1.83,2.2-3.29,2.91-1.46.71-3.27,1.06-5.45,1.06h-20.71l2.28-15.16-2.28-14.37h20c2.73,0,4.84.64,6.34,1.91,1.5,1.27,2.24,3.03,2.24,5.26,0,1.23-.28,2.41-.85,3.52-.56,1.12-1.48,2.06-2.74,2.83-1.26.77-2.95,1.25-5.08,1.44Zm-13.3,12.87l-2.56-3.27h15.27c1.39,0,2.48-.33,3.27-.98.79-.66,1.18-1.59,1.18-2.79s-.45-2.21-1.34-2.93-2.2-1.08-3.94-1.08h-12.44v-4.8h11.65c1.18,0,2.16-.33,2.93-1,.77-.67,1.16-1.61,1.16-2.82,0-.92-.33-1.68-.98-2.28-.66-.6-1.6-.91-2.83-.91h-13.9l2.52-3.27,2.09,12.68-2.09,13.46Z"/><path class="uuid-481f3a19-2289-4da6-a9fe-addf7c1bdfbe" d="m372.71,58.35l-2.01,12.52-2.91-3.31h22.75v5.55h-26.57l2.28-14.76-2.28-14.76h26.38v5.55h-22.56l2.91-3.31,2.01,12.52Zm16.61-2.56v5.12h-21.1v-5.12h21.1Z"/><path class="uuid-481f3a19-2289-4da6-a9fe-addf7c1bdfbe" d="m392.86,43.58h30.11v5.91h-30.11v-5.91Zm11.69,2.99h6.69v26.53h-6.69v-26.53Z"/></g></svg>