<?xml version="1.0" encoding="utf-8"?>
<!-- Generator: Adobe Illustrator 27.3.1, SVG Export Plug-In . SVG Version: 6.00 Build 0)  -->
<svg version="1.1" id="uuid-09c78b5e-cf1e-47fd-9fac-457f57989003"
	 xmlns="http://www.w3.org/2000/svg" xmlns:xlink="http://www.w3.org/1999/xlink" x="0px" y="0px" viewBox="0 0 423 100.9"
	 style="enable-background:new 0 0 423 100.9;" xml:space="preserve">
<style type="text/css">
	.st0{fill:#FFFFFF;}
	.st1{opacity:0.5;fill:#FBB03B;}
	.st2{fill:#FBB03B;}
</style>
<g id="uuid-f3ecbb2b-82e3-4360-9a79-b570968f0a53">
	<path class="st0" d="M156.4,73.7c-3.4,0-6.4-0.6-9-1.9c-2.6-1.3-4.6-3.1-6.1-5.4c-1.4-2.3-2.2-5-2.2-8s0.7-5.8,2.2-8
		c1.4-2.3,3.5-4.1,6.1-5.4s5.6-1.9,9-1.9s6.4,0.6,9,1.9s4.6,3.1,6,5.4c1.4,2.3,2.2,5,2.2,8s-0.7,5.7-2.2,8c-1.4,2.3-3.5,4.1-6,5.4
		C162.9,73.1,159.9,73.7,156.4,73.7z M156.4,67.7c2.1,0,4-0.4,5.6-1.1c1.6-0.8,2.8-1.8,3.6-3.2c0.9-1.4,1.3-3.1,1.3-5
		s-0.4-3.6-1.3-5s-2.1-2.5-3.6-3.2s-3.4-1.1-5.6-1.1s-4,0.4-5.5,1.1s-2.8,1.8-3.6,3.2s-1.3,3.1-1.3,5s0.4,3.6,1.3,5s2.1,2.5,3.6,3.2
		S154.3,67.7,156.4,67.7z"/>
	<path class="st0" d="M194.4,43.6c2.3,0,4.4,0.4,6.1,1.2c1.7,0.8,3,2,3.9,3.4c0.9,1.5,1.4,3.2,1.4,5.1s-0.5,3.7-1.4,5.1
		c-0.9,1.5-2.2,2.6-3.9,3.4c-1.7,0.8-3.7,1.2-6.1,1.2h-13v-5.5H194c1.6,0,2.8-0.4,3.6-1.1s1.3-1.8,1.3-3.1s-0.4-2.4-1.3-3.1
		s-2.1-1.1-3.6-1.1H182l3-3.2v27.2h-6.7V43.6C178.3,43.6,194.4,43.6,194.4,43.6z"/>
	<path class="st0" d="M217.3,58.3l-2,12.5l-2.9-3.3h22.8v5.6h-26.6l2.3-14.8l-2.3-14.8H235v5.5h-22.6l2.9-3.3
		C215.3,45.8,217.3,58.3,217.3,58.3z M233.9,55.8v5.1h-21.1v-5.1H233.9z"/>
	<path class="st0" d="M267.6,68.7l-2.3,0.4V43.6h6.5v29.5h-8.5l-18.9-25.4l2.3-0.4v25.8h-6.5V43.6h8.7L267.6,68.7L267.6,68.7z"/>
	<path class="st0" d="M284.2,43.6h30.1v5.9h-30.1V43.6z M295.9,46.6h6.7v26.5h-6.7C295.9,73.1,295.9,46.6,295.9,46.6z"/>
	<path class="st0" d="M318.1,43.6h6.7v29.5h-6.7C318.1,73.1,318.1,43.6,318.1,43.6z"/>
	<path class="st0" d="M349.8,58.5l0.6-1.3c2.3,0,4.2,0.4,5.7,1.1c1.5,0.7,2.6,1.6,3.3,2.7c0.7,1.1,1.1,2.5,1.1,3.9
		c0,1.6-0.4,3-1.1,4.2c-0.7,1.2-1.8,2.2-3.3,2.9c-1.5,0.7-3.3,1.1-5.5,1.1h-20.7l2.3-15.2l-2.3-14.4h20c2.7,0,4.8,0.6,6.3,1.9
		s2.2,3,2.2,5.3c0,1.2-0.3,2.4-0.9,3.5c-0.6,1.1-1.5,2.1-2.7,2.8C353.6,57.9,351.9,58.3,349.8,58.5L349.8,58.5z M336.5,71.4
		l-2.6-3.3h15.3c1.4,0,2.5-0.3,3.3-1c0.8-0.7,1.2-1.6,1.2-2.8s-0.5-2.2-1.3-2.9s-2.2-1.1-3.9-1.1H336v-4.8h11.6c1.2,0,2.2-0.3,2.9-1
		s1.2-1.6,1.2-2.8c0-0.9-0.3-1.7-1-2.3c-0.7-0.6-1.6-0.9-2.8-0.9H334l2.5-3.3l2.1,12.7L336.5,71.4L336.5,71.4z"/>
	<path class="st0" d="M372.7,58.3l-2,12.5l-2.9-3.3h22.8v5.6H364l2.3-14.8L364,43.6h26.4v5.5h-22.6l2.9-3.3
		C370.7,45.8,372.7,58.3,372.7,58.3z M389.3,55.8v5.1h-21.1v-5.1H389.3z"/>
	<path class="st0" d="M392.9,43.6H423v5.9h-30.1V43.6z M404.5,46.6h6.7v26.5h-6.7C404.5,73.1,404.5,46.6,404.5,46.6z"/>
	<path class="st0" d="M105.2,42.5l6.6,6.6l-6.6,6.5l-3.1,3.1l3.1,3.1l7.3,7.3c-5.1-1.3-9.2-1.9-12.4-1.9c-4.5,0-7.1,1.2-9,2.7
		c-0.7,0.4-1.2,1-1.7,1.5l-1.1,1.1l-2.9,2.9l-6.6-6.6L105.2,42.5 M105.2,36.3L72.7,68.8l12.8,12.8c1.9-1.9,2.5-2.5,6-6
		c0.5-0.5,0.9-0.9,1.2-1.2c0,0,0.7-0.7,0.7-0.7s-0.2,0.2-0.7,0.7l0,0l0,0c1.3-1.3,2.8-2.8,7.5-2.8c4.8,0,13.1,1.7,28.1,7l-19.9-19.9
		l9.7-9.7L105.2,36.3L105.2,36.3L105.2,36.3z"/>
	<path class="st0" d="M65.1,68.4l-32.5,32.5L0,68.4l32.5-32.5L65.1,68.4L65.1,68.4z M32.5,94.7l26.3-26.3L32.5,42.1L6.2,68.4
		C6.2,68.4,32.5,94.7,32.5,94.7z"/>
	<path class="st0" d="M32.5,58.3c5.6,0,10.1,4.5,10.1,10.1s-4.5,10.1-10.1,10.1S22.4,74,22.4,68.4S26.9,58.3,32.5,58.3 M32.5,53.5
		c-8.2,0-14.9,6.7-14.9,14.9s6.7,14.9,14.9,14.9s14.9-6.7,14.9-14.9S40.8,53.5,32.5,53.5L32.5,53.5z"/>
	<path class="st0" d="M32.5,63.6c-2.6,0-4.8,2.1-4.8,4.8s2.1,4.8,4.8,4.8s4.8-2.1,4.8-4.8S35.2,63.6,32.5,63.6
		C32.5,63.6,32.5,63.6,32.5,63.6z"/>
	<polyline class="st0" points="82.9,100.9 96.6,100.9 96.6,100.9 68.8,73.2 41.1,100.9 41.1,100.9 54.8,100.9 	"/>
	<path class="st1" d="M68.8,0L36.3,32.5L68.8,65l32.5-32.5L68.8,0z M68.8,45.9L55.5,32.5l13.3-13.4l13.3,13.4
		C82.2,32.5,68.8,45.9,68.8,45.9z"/>
	<path class="st2" d="M68.8,19.2L55.5,32.5l13.3,13.4l13.3-13.3C82.2,32.5,68.8,19.2,68.8,19.2z M61.7,32.5l7.2-7.1l7.2,7.1
		l-7.2,7.2L61.7,32.5z"/>
</g>
</svg>
